<?xml version="1.0" encoding="iso-8859-1"?>
<!-- Uploaded to: SVG Repo, www.svgrepo.com, Generator: SVG Repo Mixer Tools -->
<svg version="1.1" id="Layer_1" xmlns="http://www.w3.org/2000/svg" xmlns:xlink="http://www.w3.org/1999/xlink" 
	 viewBox="0 0 281.19 281.19" xml:space="preserve">
<g>
	<path style="fill:#80D0E1;" d="M241.946,276.19H60.708c-5.523,0-10-4.477-10-10V15c0-5.523,4.477-10,10-10h181.238
		c5.523,0,10,4.477,10,10v251.19C251.946,271.713,247.469,276.19,241.946,276.19z"/>
	<rect x="80.708" y="35" style="fill:#FFE49C;" width="141.238" height="77.064"/>
	<path style="fill:#80D0E1;" d="M39.244,116.595h11.464v-38H39.244c-5.523,0-10,4.477-10,10v18
		C29.244,112.118,33.721,116.595,39.244,116.595z"/>
	<path style="fill:#80D0E1;" d="M39.244,172.595h11.464v-38H39.244c-5.523,0-10,4.477-10,10v18
		C29.244,168.118,33.721,172.595,39.244,172.595z"/>
	<circle style="fill:#FFFFFF;" cx="151.327" cy="195.595" r="55"/>
	<g>
		<circle style="fill:#80D0E1;" cx="151.327" cy="195.595" r="16.5"/>
		<g>
			<path style="fill:#393654;" d="M241.947,0H60.708c-8.271,0-15,6.729-15,15v58.595h-6.464c-8.271,0-15,6.729-15,15v18
				c0,8.271,6.729,15,15,15h6.464v8h-6.464c-8.271,0-15,6.729-15,15v18c0,8.271,6.729,15,15,15h6.464v88.595c0,8.271,6.729,15,15,15
				h181.239c8.271,0,15-6.729,15-15V15C256.947,6.729,250.218,0,241.947,0z M39.244,111.595c-2.757,0-5-2.243-5-5v-18
				c0-2.757,2.243-5,5-5h6.464v28H39.244z M39.244,167.595c-2.757,0-5-2.243-5-5v-18c0-2.757,2.243-5,5-5h6.464v28H39.244z
				 M246.947,266.19c0,2.757-2.243,5-5,5H60.708c-2.757,0-5-2.243-5-5v-93.595v-38v-18v-38V15c0-2.757,2.243-5,5-5h181.239
				c2.757,0,5,2.243,5,5L246.947,266.19L246.947,266.19z"/>
			<path style="fill:#393654;" d="M221.947,30H80.708c-2.761,0-5,2.239-5,5v77.064c0,2.761,2.239,5,5,5h141.239c2.762,0,5-2.239,5-5
				V35C226.947,32.239,224.708,30,221.947,30z M216.947,107.064H85.708V40h131.239L216.947,107.064L216.947,107.064z"/>
			<path style="fill:#393654;" d="M151.326,135.595c-33.084,0-60,26.916-60,60s26.916,60,60,60s60-26.916,60-60
				S184.41,135.595,151.326,135.595z M151.326,245.595c-27.57,0-50-22.43-50-50s22.43-50,50-50s50,22.43,50,50
				S178.897,245.595,151.326,245.595z"/>
			<path style="fill:#393654;" d="M151.326,174.095c-11.855,0-21.5,9.645-21.5,21.5s9.645,21.5,21.5,21.5s21.5-9.645,21.5-21.5
				S163.182,174.095,151.326,174.095z M151.326,207.095c-6.341,0-11.5-5.159-11.5-11.5s5.159-11.5,11.5-11.5s11.5,5.159,11.5,11.5
				S157.667,207.095,151.326,207.095z"/>
		</g>
	</g>
</g>
</svg>